<?xml version="1.0" encoding="utf-8"?>
<!-- Generator: Adobe Illustrator 16.0.3, SVG Export Plug-In . SVG Version: 6.00 Build 0)  -->
<!DOCTYPE svg PUBLIC "-//W3C//DTD SVG 1.1//EN" "http://www.w3.org/Graphics/SVG/1.1/DTD/svg11.dtd">
<svg version="1.1" id="Ebene_1" xmlns="http://www.w3.org/2000/svg" xmlns:xlink="http://www.w3.org/1999/xlink" x="0px" y="0px"
	 width="244.639px" height="52.48px" viewBox="0 0 244.639 52.48" enable-background="new 0 0 244.639 52.48" xml:space="preserve">
<g>
	<path fill="#007AC2" d="M167.317,23.834c-5.243-3.837-8.874-4.875-11.313-4.835c-2.285,0.037-5.935,0.998-4.919,4.12
		c1.326,4.079,18.167,3.911,18.167,16.864c0,8.074-5.719,11.522-15.812,11.522c-6.224,0-12.195-3.027-13.877-3.952v-6.393
		c3.952,1.682,7.906,3.826,12.531,3.826c3.617,0,5.888-1.641,5.888-3.407c0-5.634-19.261-4.625-19.261-17.324
		c0-7.149,6.477-11.943,16.064-11.943c4.878,0,9.978,2.402,13.915,4.803L167.317,23.834z"/>
	<path fill="#007AC2" d="M41.983,13.386c-3.343-2.514-7.088-5.49-12.552-5.464c-11.577,0.057-17.97,7.812-17.97,17.969
		c0,10.085,6.25,18.23,16.833,18.23c2.698,0,4.829-0.83,6.534-1.256V31.032H24.318V23.22l22.987,0.023v22.333
		c-4.412,4.96-13.684,6.904-19.011,6.904C12.243,52.48,0,43.362,0,26.602C0,9.627,11.076,0.567,28.295,0.109
		C35.279-0.075,42.553,3.372,45.83,5.92L41.983,13.386z"/>
	<path fill="#007AC2" d="M51.3,0h10.609v50.536H51.3V0z"/>
	<path fill="#007AC2" d="M97.312,48.476c-3.48,1.919-7.458,2.912-12.571,2.912c-12.074,0-19.105-6.96-19.105-18.962
		c0-10.583,5.61-19.319,16.975-19.319c13.565,0,18.493,9.305,18.493,22.088H77.457c0.426,5.896,2.609,8.239,8.802,8.688
		c4.604,0.332,7.501-1.159,11.053-3.146V48.476z M90.919,28.66c-0.284-4.615-2.415-8.594-7.742-8.594
		c-5.326,0-5.84,3.694-6.266,8.594H90.919z"/>
	<path fill="#007AC2" d="M106.267,15.877c3.693-1.705,8.665-3.316,12.713-3.316c11.151,0,16.313,4.617,16.313,15.412v5.233
		c0,3.693,0.07,6.464,0.142,9.162c0.071,2.77,0.214,5.326,0.427,8.168h-9.474c-0.354-1.917-0.354-1.601-0.426-2.738l0,0
		c-2.219,4.079-10.151,3.59-10.889,3.59c-6.464,0-12.784-3.906-12.784-10.866c0-5.469,2.769-8.665,6.29-10.633
		c3.266-1.825,7.177-3.03,11.154-3.03l5.46-0.235c0-5.895-1.74-7.103-7.35-7.103c-4.049,0-8.098,2.109-11.293,4.525L106.267,15.877z
		 M117.417,44.428c2.9,0.266,5.094-0.163,6.55-1.722c2.284-2.444,1.568-6.233,1.568-9.074h-3.573c-4.262,0-8.414,0.71-8.397,6.322
		C113.573,42.471,114.918,44.198,117.417,44.428z"/>
	<path fill="#007AC2" d="M189.328,12.03c10.418,0,18.385,7.964,18.385,20.209c0,10.662-6.74,19.161-18.385,19.161
		c-11.575,0-18.863-8.499-18.863-19.161C170.465,19.994,178.979,12.03,189.328,12.03z M189.062,43.911
		c5.68-0.091,7.479-6.629,7.479-12.824c0-5.691-3.009-11.042-7.213-11.021c-5.068,0.026-7.691,5.475-7.691,11.021
		C181.637,37.21,182.937,44.008,189.062,43.911z"/>
	<path fill="#007AC2" d="M210.497,12.867h10.659v4.425l0.143-0.546c2.914-3.953,5.938-4.73,10.91-4.73
		c8.664,0,12.461,6.06,12.43,15.438v23.083h-11.157V31.005c0-4.475,0.476-12.143-5.632-12.15c-7.286-0.011-6.195,9.095-6.195,13.782
		v17.899h-11.157V12.867z"/>
</g>
</svg>
